<svg xmlns="http://www.w3.org/2000/svg" viewBox="0 0 397.2 730.15"><defs><style>.cls-1,.cls-5{fill:#292929;}.cls-2{fill:#2d3142;}.cls-3{fill:#2d2a38;}.cls-13,.cls-4{stroke:#000;}.cls-12,.cls-13,.cls-4,.cls-5,.cls-8{stroke-miterlimit:10;}.cls-5{stroke:#292929;}.cls-6{fill:#e8e8f4;}.cls-7{fill:#515461;}.cls-12,.cls-8{fill:none;stroke:#e8e8f4;stroke-linecap:round;}.cls-8{stroke-width:4px;}.cls-9{fill:#d8b69c;}.cls-10{fill:#eec7aa;}.cls-11{fill:#8fadcb;}.cls-12{stroke-width:5px;}.cls-13{fill:#141311;stroke-width:0.25px;}.cls-14{fill:#fff;opacity:0.85;}.cls-15{fill:#50484d;}.cls-16{fill:#605759;}.cls-17{fill:#5b473f;}</style></defs><g id="Layer_2" data-name="Layer 2"><g id="Layer_44" data-name="Layer 44"><g id="Layer_47" data-name="Layer 47"><g id="Layer_23" data-name="Layer 23"><path class="cls-1" d="M.29,286H51v14.94H39.28l.65,46.14,3.25,100.07H20.43L15.88,321.73,10,313.28s-9.1,4.55-9.75,0S.29,286,.29,286Z"/><path class="cls-1" d="M396.91,289.88H346.22v14.95h11.7L357.27,351,354,451h22.74l4.55-125.42,5.85-8.44s9.1,4.55,9.75,0S396.91,289.88,396.91,289.88Z"/><path class="cls-2" d="M365,356.17s-.08-22.1,0-68.23S313.61,124.18,287,59.85,198.6.07,198.6.07s-61.73-4.55-88.38,59.78-78.14,182-78,228.09,0,68.23,0,68.23-15,27.29,0,54.58S62.79,474.43,95.28,477s103.32,2.6,103.32,2.6,70.83,0,103.32-2.6S350,438,365,410.75,365,356.17,365,356.17Z"/><path class="cls-3" d="M323.42,327.08s-.06-16.57,0-51.17-38.56-122.82-58.54-171.07S198.6,60,198.6,60s-46.3-3.42-66.28,44.83S73.71,241.3,73.77,275.91s0,51.17,0,51.17-11.27,20.47,0,40.94,23,47.76,47.34,49.71,77.49,1.95,77.49,1.95,53.12,0,77.49-1.95,36.06-29.25,47.33-49.71S323.42,327.08,323.42,327.08Z"/><path class="cls-3" d="M337.66,343.82c-3.25-7.15-31.19,22.09-31.19,22.09-18.2,26.64-107.87,22.75-107.87,22.75v63s18.19,3.25,68.23,4.55,53.93-51.34,63-68.23S340.91,351,337.66,343.82Z"/><path class="cls-3" d="M90.31,365.91s-27.94-29.24-31.19-22.09-1.3,27.29,7.8,44.19,13,69.53,63,68.23,68.23-4.55,68.23-4.55v-63S108.51,392.55,90.31,365.91Z"/><path class="cls-4" d="M362.35,621.29s18.84-6.5,18.84-13.65V592.05s-24,4.54-26,11.69,0,17.55,0,17.55Z"/><circle class="cls-4" cx="367.77" cy="617.39" r="15.27"/><path class="cls-4" d="M34.85,621.29S16,614.79,16,607.64V592.05s24,4.54,26,11.69,0,17.55,0,17.55Z"/><path class="cls-5" d="M257.08,544c-35.37-6.88-41.4-1.5-42.23,1.54V479.56l-16.25.07s.65,158.55,0,167l5.2-1.3,3.25-8.77c-.65-15.27,7.68-10.72,7.68-10.72l.11-33.79,17.55-7.15c17.54-7.15,122.81,15.59,122.81,15.59h26V584.25C381.19,579.7,303.87,553.06,257.08,544Z"/><path class="cls-5" d="M198.6,479.63l-16.25-.07V545.5c-.84-3-6.86-8.42-42.23-1.54C93.33,553.06,16,579.7,16,584.25v16.24H42s105.27-22.74,122.82-15.59l17.54,7.15.12,33.79s8.33-4.55,7.68,10.72l3.25,8.77,5.2,1.3C198,638.18,198.6,479.63,198.6,479.63Z"/><circle class="cls-4" cx="29.43" cy="619.76" r="15.27"/><path class="cls-4" d="M202.76,623.33a18.85,18.85,0,1,1,0,37.69"/><path class="cls-4" d="M193.4,623.33a18.85,18.85,0,0,0,0,37.69"/></g><g id="Layer_43" data-name="Layer 43"><path class="cls-6" d="M150.38,656.18c.77.32,1.65.36,1.69,1.6s0,15.18-.24,16.15-2.24,3.24-3.92,4-14.66,6.25-16.19,6.65a33,33,0,0,1-5.44.4s-1.77,4.45-1.89,5.29S102,716.13,100,717.52s-13.46,9.08-24.89,11.22-21.36,1.6-28,0S28.26,724.36,26,717.31s-.44-22.22-.44-22.22a225.9,225.9,0,0,0,54.6-8.33,227.15,227.15,0,0,0,68.36-32.37Z"/><path class="cls-7" d="M137.53,610.49s6.3,9.08,9,25.21c.53,3.16.65,7.9,1.18,9.4s3,8.65,2.67,10.25-10.79,10.58-16.24,12.18-15.27,6-18.26,9.61-19.23,19.23-22.11,23.5S82.52,711.32,78,711.86,58.91,714,52,712.61,31.35,707,28.26,701.82s-5.34-11.65,3.2-16.67,19-11.85,19.76-12.49,7-7.36,9.08-10.84S78.89,634.2,78.89,634.2s2.23,1.38,2.44.31-.69-7-1.54-10.46c-.58-2.36-2.82-7-2.18-8.76s1.49-3.52,6.51-3.63,14.53-.21,14.53-.21,16.27,2.15,17.61,3.07,2.79,6.22,2.79,6.22S134.22,608.46,137.53,610.49Z"/><path class="cls-6" d="M121.3,621.92s0,.64-1,0-1-.22-2.45,0-1.61,10.68-3.1,12.6-6.09,2.46-6.94,2.67-7.16,10.26-7.69,9.3-8.55-4.7-10.9-5.56S79,640,79,640l2.34-5.46-2.44-.31-5.63,8.28L63,657.69l-5.49,7.91-6.3,7.06S68.31,675,72.16,677s9.08,4.27,10.15,2,32.15-40,35.78-43.37S121.3,621.92,121.3,621.92ZM77.5,676.5s-6.09-4.7-9.83-5.13a65.68,65.68,0,0,1-7.26-1.28l1.49-3.84s8.55,0,10.79,1,9.19,3.1,9.19,3.52S77.5,676.5,77.5,676.5Zm11-14.79c-.83,2.51-2.21,3.15-2.21,3.15S71.41,659,66.5,660.69v-.53L68,656.53S89.32,659.2,88.48,661.71ZM93.31,655c-.86,0-7.59-3.31-9.29-4.24s-10.9,0-10.9,0a32.65,32.65,0,0,1,1.17-4.2c.33-.42,11.65,1.18,13.64,1.18s8.37,4.38,8.37,4.38S94.16,655,93.31,655Z"/><path class="cls-6" d="M85.51,612.3s.12,7.05.76,7.69,16.55,2.25,17.19.86,1.28-7.91.53-7.91S87,611.24,85.51,612.3Z"/><path class="cls-8" d="M143.3,642.64s-5.88,11.11-13,16.34l-1.25.91c-7.3,5.21-18.75,12.53-20.86,15.76-2.25,3.42-9.72,9.93-11.86,10.25"/><path class="cls-8" d="M81.88,700.59c-.64.32-20.51,5.34-27.67,3.74s-22.43-8.65-23.28-9.51"/><path class="cls-9" d="M176.52,139.2a38.27,38.27,0,0,1,.32,4.81c-.11,1.28-4.52,4-4.2,8.76s3.24,8.44,7.3,12.5,17.54,15,23.12,17c11.32,4.06,20.14,1.63,28.37-3.2,0,0,2.36,6.34,5.2,14.06,4.09,11.11,5.62,15.52,8,22.36,3.55,10.05,6.1,17.63,9,23.77,9.8,20.91,16.52,35.15,31.3,63.08,5.05,9.53,7.77,14.76,14.1,17.83,3.74,1.82,30.23-3.73,31.3-4.48s4.17-9,2.24-21.26S330.63,260.15,327,258s-17.49-5.9-19-7.61-34.39-48.07-36.53-53.51-17.65-31.66-18.5-33.17-2.07-1.3-1.45-4.49c1-4.91,4.78-8,8.63-13s11.75-14,12.07-15.16a11,11,0,0,1,1.17-3.32c.54-.64.33-3.63-.74-6.4s-4.81-21.15-5.56-22.65-8.33-12.28-9.29-12.93-8.87-.74-8.87-.74-5.12-20.51-5.44-20.73-11.54-6.19-12.5-6-27.13,2.57-35,3.95-21.9,8-22,8.34-5.77,40.49-5.77,40.49-2.57-2.57-5.56-1.72-6.51-.64-6.41,6.09,3.53,11,6.2,14.1,9.83,6.52,11.32,6.94a2.71,2.71,0,0,0,2.14,0Z"/><path class="cls-9" d="M102.12,280.77s-3.44,9.55-3,10.83,15.86,6.63,30,17.85c3.87,3.07,14.65,8.55,17.53,9.83,1.06.47,23,11.39,26.05,13.08,3.95,2.2,28.17,14.62,33,20.75,2.4,3,4.65,8.14,11.21,27.72,1.52,4.51,11,27.84,9.94,32.52-.32,1.37,2.56,7.86,1.2,10.18s-3.77,3.2-4.17,3.92.32,3.53-.08,4.25-6.48,7.53-6.65,8-1,.72-1.2,2.16-6.25,4.57-6.25,4.57-4.4,7.69-8.73,8.33-20.35,1.69-20.75-1.84,1.52-5.29,5.13-6,7.93-1.52,8.17-1.68-1-23.15-1-23.15-4.57-7.13-5.77-14.82c-.71-4.56-7.45-22.88-7.45-28.93,0-1-13.62-7.66-13.62-7.66s-30.55-15.09-36-16.85c-4.19-1.36-30.92-11.7-37.33-13.7s-38.86-10.58-45-16.51c-1.11-1.09-4.47-2.08-4.47-6.8s0-21,3.52-30.37c2.75-7.29,14.66-25.71,18.11-28.76s33,10.1,33,10.1Z"/><path class="cls-10" d="M274.75,569.57s39.35,6.63,40.31,7.8-3.32,28.11-3.32,28.11c-5,0-10.29,1-13.61,1.27-5.68.45-9.45,1-10.84,3.29-.54.9-1.86,2.46-1.93,3.08a9.94,9.94,0,0,0-.05,1.12s0,0,0,0c-.22.27-3.82-2.71-7.29-5a51.87,51.87,0,0,0-7-3.87q.33-8.16,1.14-17C272.61,583.5,274.13,574.07,274.75,569.57Z"/><path class="cls-10" d="M131.66,570.32s4.8,39.31,3.41,40.27-16,10.15-16,10.15-1.19-5.47-2.79-6.22-23.17-2-24.77-2.57c0,0-5.09-28.86-5.12-29.88-.12-3.09,5.34-8,5.34-8Z"/><path class="cls-7" d="M220.21,392.2s6.94,1,8.22.27,5.51-4.08,7.32-7.4,11.27-16.95,11.91-18.24,10.79-18.05,11.64-18.8,14.53-12,16.88-13.67,7.69-6.19,8.65-7.16,7.8-3.41,10.79-4.27,16.13-4.7,18.91-4.8,22.65-4.6,30.66-1.61c5.58,2.09,25.21,12,28.84,24.14,2.14,7.2,2.24,16.24,1.81,22.76s-1.17,21.47-3.41,28.62-13.57,41.88-15.17,47.32-14.42,53.52-14.42,53.52-7.8,29.38-8.33,35.57-7.59,44.22-7.48,46.47-.54,8.12-1.71,8.12-59.71-7.8-62.6-13.14S265.93,544.26,266,543s5.88-32.58,6.52-41.77,1.92-20.29,1.92-25.31,0-45.08.22-49.14a81.53,81.53,0,0,1,1.6-10.36,117.05,117.05,0,0,1-42.62,6.51c-7.44-.34-5.24-1.17-5.24-1.17s-2.05-7-2.05-7.5-2.65-12.18-2.65-12.18Z"/><path class="cls-7" d="M130.16,426s-.64,40.38-1,44.71.8,44.38,1.92,47.42,11.54,42.14,9.62,49.19S114.3,582.23,109,583,76.82,579,72.8,577.43c-6.25-2.41-3.37-3.85-3.85-11.22-1-14.81-8.17-65.69-8.17-67.61s-16.34-57.37-17.3-64.1-9-35.57-9.94-45.82S23.93,348,32.9,336.19,45.4,322,45.4,322a46.73,46.73,0,0,0,5.45,4.11c2.08,1.18,25.63,8.37,30.12,10.06s37.17,12.11,38.94,13.39,30.44,13,32.2,14.1,26.78,13.35,27.16,14.66c.76,2.62-.59.61,1,6.22s5.46,18.87,6.28,22.06c1.28,5,2.57,10.42,5.93,15.47.69,1-9.29,3.92-9.77,3.92s-16.19.8-16.19.8Z"/><path class="cls-11" d="M231.59,179.1s-9.35,4.14-11.27,4.42-9.3,2.51-18.06-2.21S180.63,168.15,176,159c-2.62-5.17-1.56-11.74,2.13-14,1-.59-1.48-8.06-3.6-6s-5.21,6-7,6.78-8.54,5.18-25.1,9.46c-5.54,1.43-25.47,7.42-26.76,8.44s-14.2,18.64-14.63,20.4-14.58,25.26-16.88,29.64-13.4,20-15.65,22.67-11.69,13.4-10.81,17.16,11.69,10.4,11.69,10.4,45.56,29.54,52.88,24.84c3.36-2.17,15.22-40.38,15.22-40.38s.48-.72,1.28,1.36.48,6.41.72,7.37,5,8.89,5.14,10.42-2.25,26.11-1.45,28.6,2.8,4.29,2.56,5.35.56,1.78-1.44,3-4,.72-5,3.2a70.2,70.2,0,0,0-2,7c7.11,5.41,13.57,6.76,18,8.83,18.83,8.89,27.81,14.58,36.15,19.23a151.1,151.1,0,0,1,13.21,9.05c.55.42.67,1,1.13,1.72,1.28,2.11,2.79,5.33,7.12,15.82,3.2,7.77,7.21,23,8.49,23.57s7.13.23,8.81-1.54,5.61-4.88,7.69-8.17,15.15-25.07,16.11-26.68,6.25-10.49,13.94-15.78,16.74-12.82,17.06-13.86a5.89,5.89,0,0,1,1.84-2.64c.89-.8,1.77-3.85-.72-5.21a26.89,26.89,0,0,1-4.64-3.36,6.55,6.55,0,0,0,2.32-3.13c.64-2,.32-9.37-.56-11.62S271,275.64,271,275.64s-22.68-49.31-23.39-51.44c-.8-2.4-14-43-14.58-43.74A8.35,8.35,0,0,0,231.59,179.1Z"/><path class="cls-11" d="M267.51,138.19s2.93.93,4.05,2.38,42.64,3.92,44.15,4.64c4.48,2.17,11.77,7.69,15.06,21.79,1.3,5.6,3.6,34,2.08,50.15-.62,6.64-.32,19.39,1.6,24.44s7.93,18.91,7.29,20.59-11.88,5.05-11.88,5.05-1.34-8.58-2.86-9.22a5.91,5.91,0,0,0-3-.4s-4.33-3.28-15.06-5.45c0,0-1.21-.32-3.69-3.84S283.74,220,277,208.26s-19.47-34.77-19.95-35.49-4.48-9.61-5.21-10.09-.8-4,0-6,14.1-18,15-18.19S267.51,138.19,267.51,138.19Z"/><path class="cls-6" d="M253.43,649.26s-3.42,16.67.53,20.19,20.83,8.87,22.65,9.3,2.67.53,3.74,5.12,21.58,25.85,27,29,20.62,13.14,45,10.26c10-1.19,25-8.34,26.17-12.18s2.68-20,1.93-20.51-4.49-1.18-4.49-1.18L260.48,641.15Z"/><path class="cls-7" d="M326.39,611s-3.42,16-2.89,16.45.59-.64,1.42,0,18,26.29,20.8,30.77c.86,1.38,11.54,10.78,14.64,13s18.15,8.76,18.15,15.38c0,5.14-1.38,7.69-4.05,10.25s-13,7.16-15.92,7.8S343.48,707.37,339,707s-13.67-.33-18.26-3.64-12.18-12-18.7-19S287.18,668.38,285.9,668s-5.87-3.31-10.68-5.13-13.57-6-14.63-7.48-6.63-6.3-6.63-6.3.64-5.23,1.93-7.48,2-13.14,2-13.14,5.76-23.92,8.33-24.24,5.44.89,10.08,4,8.27,6,9,6.06-.56-5,1.68-5.65,11.85-2.83,16.76-2.94,12.93-2.46,17.31-1S327.33,606.49,326.39,611Z"/><path class="cls-6" d="M345.72,658.24l-2.42-3.77-10.89-16.29s-6.17-9-7.49-10.71-1.42,0-1.42,0L325,633a41.18,41.18,0,0,1-7.85,1c-3.69,0-13.94,5.61-13.94,5.61s-6.57-9-7-9.46-5.61-1.44-7.37-3.36S287,616.2,287,616.2s-2.38-2.23-3.52-1,1.12,13.94,6.73,18,8.17,9.93,11.38,12.82,13.29,15.38,17.46,21.47,5,7.21,6.89,5.92,3.85-1.6,8.65-4.32S353.93,666,353.93,666Zm-36.26-10.15L308,645s17.79-5.44,20.83-4.64a4.45,4.45,0,0,1,3.21,4s-15.54-.28-19.23,2.61S309.46,648.09,309.46,648.09Zm9.11,9.93-2.33-3.36s15.17-5.45,18.37-4.81a3.56,3.56,0,0,1,2.89,3.85s-10.1-.26-13.46,1.87A16.16,16.16,0,0,1,318.57,658Zm9.15,10.9c-1.6,2.4-5.12-5-5.12-5s14.53-6.66,18.1-4.17a8.07,8.07,0,0,1,2.4,3.53S329.32,666.51,327.72,668.92Z"/><path class="cls-12" d="M261.87,636.87s5.93,12.88,16.34,18.7,15.64,12.07,19.92,17,7.48,5.77,9.88,6.25"/><path class="cls-12" d="M321.15,693.18s25,5.29,28.2,3.85,20.67-8.65,21.95-9.77"/><path class="cls-6" d="M300.22,606.86s-.22,7.87,1,8,16.55.34,16.77-1.26,1-8.34,0-8.44S301.18,606.11,300.22,606.86Z"/><path class="cls-13" d="M183,125.42l-12-14.3s-1.6,1.17-2.08.85-2.63-3.08-4.71-2.73c-2.5.43-5.44.05-7.24,2.15-1.22,1.42-2-1.51-3.76-5s-5.28-11.54-6.89-11.7-5.28.32-6.08-1.76a22.92,22.92,0,0,1-1.13-4.65s-1.28-6.57,3.21-9.93c.36-.27-5.93-6.57-5-9.14a12.08,12.08,0,0,1,2.4-4s.33-13,6.25-15.86S162.85,41,165.25,41c1,0,.48-3.52,3.85-5.6S174,33.05,183,31.69c.78-.12,3.52-2.94,6.25-2.46s2.83,2.3,4.7,1.66,6.51-3.85,9.72-3.53,10.57,1.93,11.53,3.53,8-1.92,10.74-1.12,5.12,1.28,6.09,2.72,5.92-.32,8.17,3.69,1.28,4.16,1.28,4.16,5.29,1.93,5.77,4.81,0,4,0,4,7.7,2.56,7.69,9c0,3.06,2.56,2.72,0,5.77s-4.65,6.09-6.41,6.41-2.55,3.85-2.82,2.17A67.4,67.4,0,0,0,243.69,65s-1,.85-3.93-.13l-2.89-1A12.37,12.37,0,0,1,231.59,66a41,41,0,0,1-6.91-.25c-1-.16-4,5.54-9.76,4.58s-4.48-1.93-6.89-.81-5.61,6.23-9.77,6.88a105.8,105.8,0,0,1-10.9.82s-4.48,7.69-6.09,8.17c0,0,2.09,14.26.64,15.7s-.16,2.4-3.68,4.17c-1.28.64,5.77,21,5.77,21Z"/><path class="cls-14" d="M229.39,100.32c2.84-8.3,21.34-7.1,22.3-4.22s.65,15-6.41,17.41c-1.92.66-10.89,4.14-15.54-10.85C229.17,100.82,229.39,100.32,229.39,100.32Z"/><path class="cls-14" d="M192.57,109.8c-1.6-7.14,22.83-14.18,27.08-5.37,1.54,3.2,2,15.47-8,17.63-3.34.72-15.79,1.75-19.15-9.37C190.76,106.94,192.57,109.8,192.57,109.8Z"/><path class="cls-15" d="M172.3,114.13l13.46-4.33a1.51,1.51,0,0,0,1.6,1.32c1.52.08,2.37.48,2.09.85s-12.5,5.84-14.67,5.2A3.26,3.26,0,0,1,172.3,114.13Z"/><path class="cls-16" d="M191.66,113.81l2.06-.54s1.87,5.91,7.24,7.77c1.28.45,5,2.51,11.61-.26,3.37-1.42,5.85-2.54,6.38-5.37s.35-11,.35-11l1.87-.21s.06,10.14-1,12.36c-2,4.38-8.36,6.92-11.86,7.19s-14.18-.67-16.69-9.78"/><path class="cls-16" d="M230.38,102.86s.69,2.11,1.18,3.2a15.87,15.87,0,0,0,3,5.21c2.35,2.32,6.46,3.15,10.49,1.55s5.82-5.37,6.62-13.3c.15-1.41,1.29-.85,1.29-.85a56.39,56.39,0,0,1-.89,7.18,15.39,15.39,0,0,1-3.6,6.7c-1.1,1-6.53,3.09-9.74,2.34-7.9-1.87-9.3-10.83-9.35-12.38S230.38,102.86,230.38,102.86Z"/><path class="cls-17" d="M185.2,108.44a11.08,11.08,0,0,1,5.05-4.33,98.28,98.28,0,0,1,22.19-6.71c5.43-.86,7.36-.11,8.57,3.71,0,0,6-1,6.37-1,0,0-.24-4,2.32-5C233.49,93.62,236.31,91,251,91c3.13,0,5.72,1.58,4.29,3.64-.92,1.32-1.76,1.08-1.88,1.88s.4,3.93-.2,4-1.81.32-2.21-.52.12-4.45-1.16-5a15.93,15.93,0,0,0-6.49-.48c-1.52.28-8.8.77-10.81,2.6-2.93,2.67-2,5.34-1.83,6.49s-.24,1.44-.8,1.27-.34-1.75-2.9-2.11a5.82,5.82,0,0,0-5.4,2,5.52,5.52,0,0,0-.49,1.41,1,1,0,0,1-1.28.53c-.6-.28-.58-.87-.83-1.55a5,5,0,0,0-2.34-3.15c-1.84-1.12-7.89-.4-9.17-.12s-8.81,2-10,2.72c-.46.3-4.09,1.39-4.37,3.25a9,9,0,0,0,.44,4.47c.34.68.54,1.6.3,1.76a4.63,4.63,0,0,1-2.3.2c-.56-.2-1.51-2.09-1.82-2.33a3.45,3.45,0,0,0-2.39-.78c-1.6-.06-1.88-1.28-1.76-1.68S185.2,108.44,185.2,108.44Z"/></g></g></g></g></svg>